<svg xmlns="http://www.w3.org/2000/svg" viewBox="0 0 24 24" role="img" aria-labelledby="title">
  <title>GitHub</title>
  <rect width="24" height="24" rx="5" fill="#0f1117"/>
  <path
    fill="#ffffff"
    d="M12 4.5a7.5 7.5 0 0 0-2.372 14.616c.375.07.512-.163.512-.362 0-.178-.006-.65-.01-1.277-2.086.453-2.526-1.005-2.526-1.005-.341-.866-.833-1.096-.833-1.096-.681-.466.052-.457.052-.457.753.053 1.149.773 1.149.773.67 1.148 1.758.817 2.187.625.068-.485.262-.817.477-1.005-1.665-.19-3.417-.832-3.417-3.704 0-.818.292-1.487.771-2.011-.077-.19-.334-.954.073-1.988 0 0 .628-.201 2.058.768A7.17 7.17 0 0 1 12 8.123c.637.003 1.278.086 1.878.252 1.429-.969 2.056-.768 2.056-.768.408 1.034.151 1.798.074 1.988.48.524.77 1.193.77 2.011 0 2.879-1.755 3.512-3.425 3.698.269.232.509.689.509 1.388 0 1.003-.009 1.811-.009 2.058 0 .201.135.436.517.361A7.5 7.5 0 0 0 12 4.5Z"
  />
</svg>
