<svg xmlns="http://www.w3.org/2000/svg" width="64" height="64" viewBox="0 0 48 48" fill="none">
  <path
    d="M6 20c0-5.523 4.477-10 10-10h16c5.523 0 10 4.477 10 10v4c0 8-3.5 14-8 18l-2-6H16l-2 6c-4.5-4-8-10-8-18v-4z"
    fill="#000"
  />
  <rect x="14" y="16" width="2" height="8" rx="1" fill="#000" />
  <rect x="11" y="19" width="8" height="2" rx="1" fill="#000" />
  <circle cx="33" cy="16" r="2" fill="#000" />
  <circle cx="29" cy="20" r="2" fill="#000" />
  <circle cx="37" cy="20" r="2" fill="#000" />
  <circle cx="33" cy="24" r="2" fill="#000" />
  <circle cx="19" cy="30" r="3.5" fill="#000" />
  <circle cx="29" cy="30" r="3.5" fill="#000" />
</svg>
