<svg xmlns="http://www.w3.org/2000/svg" width="48" height="48" viewBox="0 0 48 48" fill="none">
  <!-- Body -->
  <path d="M6 20c0-5.523 4.477-10 10-10h16c5.523 0 10 4.477 10 10v4c0 8-3.5 14-8 18l-2-6H16l-2 6c-4.5-4-8-10-8-18v-4z" fill="#00d9b8"/>
  <!-- Body highlight -->
  <path d="M6 20c0-5.523 4.477-10 10-10h16c5.523 0 10 4.477 10 10v4c0 8-3.5 14-8 18l-2-6H16l-2 6c-4.5-4-8-10-8-18v-4z" fill="url(#g)"/>
  <!-- D-pad vertical -->
  <rect x="14" y="17" width="4" height="12" rx="1" fill="#009e87"/>
  <!-- D-pad horizontal -->
  <rect x="12" y="19" width="8" height="4" rx="1" fill="#009e87"/>
  <!-- Buttons -->
  <circle cx="33" cy="19" r="2.2" fill="#009e87"/>
  <circle cx="29" cy="23" r="2.2" fill="#009e87"/>
  <circle cx="37" cy="23" r="2.2" fill="#009e87"/>
  <circle cx="33" cy="27" r="2.2" fill="#009e87"/>
  <defs>
    <linearGradient id="g" x1="24" y1="10" x2="24" y2="42" gradientUnits="userSpaceOnUse">
      <stop stop-color="#fff" stop-opacity="0.2"/>
      <stop offset="1" stop-color="#000" stop-opacity="0.15"/>
    </linearGradient>
  </defs>
</svg>
