<svg xmlns="http://www.w3.org/2000/svg" viewBox="0 0 24 24" role="img" aria-labelledby="title">
  <title>Google</title>
  <rect width="24" height="24" rx="5" fill="#ffffff"/>
  <path
    fill="#4285F4"
    d="M20.18 12.227c0-.638-.057-1.251-.164-1.841H12v3.483h4.584a3.92 3.92 0 0 1-1.7 2.572v2.136h2.752c1.61-1.482 2.544-3.669 2.544-6.35Z"
  />
  <path
    fill="#34A853"
    d="M12 20.5c2.295 0 4.22-.761 5.627-2.064l-2.752-2.136c-.761.51-1.735.811-2.875.811-2.209 0-4.08-1.491-4.748-3.495H4.408v2.205A8.498 8.498 0 0 0 12 20.5Z"
  />
  <path
    fill="#FBBC05"
    d="M7.252 13.616A5.1 5.1 0 0 1 6.986 12c0-.561.096-1.106.266-1.616V8.179H4.408A8.498 8.498 0 0 0 3.5 12c0 1.372.328 2.669.908 3.821l2.844-2.205Z"
  />
  <path
    fill="#EA4335"
    d="M12 6.889c1.248 0 2.369.429 3.251 1.272l2.438-2.438C16.216 4.352 14.291 3.5 12 3.5a8.498 8.498 0 0 0-7.592 4.679l2.844 2.205C7.92 8.38 9.791 6.889 12 6.889Z"
  />
</svg>
